inDegrees=no
num_controls=7
num_derivatives=13
num_iterations=115
num_multipliers=7
num_parameters=0
num_slacks=7
num_states=26
objective=0.444868
objective_accelerations=0.058316
objective_balance=0.003722
objective_effort=0.023570
objective_height=0.353758
objective_ligament=0.005501
solver_duration=1637.736241
status=Solve_Succeeded
success=true
DataType=double
version=3
OpenSimVersion=4.5
endheader
time	/jointset/ground_pelvis/pelvis_tilt/value	/jointset/ground_pelvis/pelvis_tx/value	/jointset/ground_pelvis/pelvis_ty/value	/jointset/hip_l/hip_flexion_l/value	/jointset/hip_l/hip_adduction_l/value	/jointset/hip_l/hip_rotation_l/value	/jointset/back/lumbar_extension/value	/jointset/patellofemoral_l/patellar_flexion_l/value	/jointset/knee_l/knee_flexion_l/value	/jointset/knee_l/knee_adduction_l/value	/jointset/knee_l/knee_rotation_l/value	/jointset/ankle_l/ankle_angle_l/value	/jointset/subtalar_l/subtalar_angle_l/value	/jointset/ground_pelvis/pelvis_tilt/speed	/jointset/ground_pelvis/pelvis_tx/speed	/jointset/ground_pelvis/pelvis_ty/speed	/jointset/hip_l/hip_flexion_l/speed	/jointset/hip_l/hip_adduction_l/speed	/jointset/hip_l/hip_rotation_l/speed	/jointset/back/lumbar_extension/speed	/jointset/patellofemoral_l/patellar_flexion_l/speed	/jointset/knee_l/knee_flexion_l/speed	/jointset/knee_l/knee_adduction_l/speed	/jointset/knee_l/knee_rotation_l/speed	/jointset/ankle_l/ankle_angle_l/speed	/jointset/subtalar_l/subtalar_angle_l/speed	/forceset/tau_hip_flexion_l	/forceset/tau_hip_adduction_l	/forceset/tau_hip_rotation_l	/forceset/tau_knee_flexion_l	/forceset/tau_ankle_angle_l	/forceset/tau_subtalar_angle_l	/forceset/tau_lumbar_extension	lambda_cid13_p0	lambda_cid13_p1	lambda_cid13_p2	lambda_cid13_p3	lambda_cid13_p4	lambda_cid13_p5	lambda_cid14_p0	/jointset/ground_pelvis/pelvis_tilt/accel	/jointset/ground_pelvis/pelvis_tx/accel	/jointset/ground_pelvis/pelvis_ty/accel	/jointset/hip_l/hip_flexion_l/accel	/jointset/hip_l/hip_adduction_l/accel	/jointset/hip_l/hip_rotation_l/accel	/jointset/back/lumbar_extension/accel	/jointset/patellofemoral_l/patellar_flexion_l/accel	/jointset/knee_l/knee_flexion_l/accel	/jointset/knee_l/knee_adduction_l/accel	/jointset/knee_l/knee_rotation_l/accel	/jointset/ankle_l/ankle_angle_l/accel	/jointset/subtalar_l/subtalar_angle_l/accel	gamma_cid13_p0	gamma_cid13_p1	gamma_cid13_p2	gamma_cid13_p3	gamma_cid13_p4	gamma_cid13_p5	gamma_cid14_p0
1.5	-0.3800959622803023	-0.02956694625448502	0.7590752431877653	1.127542825973664	-0.4346639457031686	-0.2124239276405364	-0.2264268988317734	0.8040192357647992	0.8040192357648792	-0.1309377652230354	-0.1468226501368399	0.1182606303965651	-0.02444740745262273	0.7077173861979181	0.2875825679083903	0.5439226723879663	-2.51630629486554	0.2075973041061359	-0.7211195620952163	0.3118749455861862	-2.01319311417767	-2.013193114178016	-0.1302195319133933	0.1321475080016951	-0.3701229077965847	0.05045412098904144	-0.1805308649871221	0.02567070599929754	-0.008201994737314753	-0.2008768414652889	0.0454455378455188	0.0463523869158427	0.1723643651284213	-17.53683483069381	-20.01880644334243	6.234989449471763	-7.990144169909456	-519.778116334889	-63.07270741975933	-25.01612858945149	0.7077891326993845	0.7305081647597177	-0.5250020893144275	-1.327456664127892	0.7183428413444213	-0.182075442447366	1.491423937646237	-1.311750705032843	-1.31175070503283	0.1225189568487044	0.2312659384848245	-0.4956034212821727	0.5215701487513651	4.890703768244718e-07	4.897019454748763e-07	-2.764235108977537e-06	-1.001474814831773e-07	6.951593626127713e-07	-1.255993332690476e-07	4.534661785129713e-07
1.51	-0.3729834957436061	-0.02665485300224522	0.7644871390662806	1.102315147952946	-0.4325535861698181	-0.2196429381673882	-0.2232348429398795	0.7838241028425543	0.7838241028425456	-0.1322369120151108	-0.1454909184762953	0.1145348617791885	-0.0239185576535786	0.7146706584505118	0.2948006742875232	0.5383409799610864	-2.528880764225356	0.2144510341486404	-0.7225639432389053	0.3265075656686694	-2.025551233757855	-2.025551233757949	-0.1296197907745499	0.1341986404821295	-0.3749592081346959	0.05531908485927584	-0.174333928030186	0.02500170612486715	-0.007872218661585892	-0.1980731131423615	0.0453453050215861	0.04550563422932324	0.1673631829988422	-17.34723547579486	-19.68836897873989	6.187002433810996	-7.843748359867055	-515.7160980328199	-63.16888557631663	-25.92956793878627	0.6733304428016427	0.7121785023856988	-0.5919660663115723	-1.170127888077277	0.6653941465581873	-0.1074748158836644	1.44488097495855	-1.155586278031144	-1.155586277993438	0.02735512893402203	0.1916638267008915	-0.4668688201863236	0.4694395387397217	4.284489991790985e-07	9.497228008017348e-07	-1.974263503181164e-06	5.790668246638026e-08	6.166995343797236e-07	-5.094038431876965e-09	4.154412672768569e-07
1.52	-0.3658046496501312	-0.02367163536063495	0.7698397753711399	1.076972188075397	-0.4303753881238715	-0.2268727635787881	-0.2198973208608787	0.7635138399858037	0.7635138399857082	-0.1335303307084921	-0.1441387501061701	0.1107628850624086	-0.02334096220931607	0.7209932975535961	0.3018074457824828	0.5320707576567357	-2.539362666231922	0.2211650066253337	-0.7232825390047547	0.3409681830075198	-2.036219101078833	-2.036219101078676	-0.1290739121744319	0.1362348499176894	-0.3793645276772363	0.06020325003272001	-0.1681369910732453	0.02433270625043631	-0.007542442585860286	-0.1952693848194339	0.04524507219765272	0.04465888154280286	0.1623620008692682	-17.16100063177131	-19.36016622687158	6.142598313056767	-7.726347600935814	-511.7211391784293	-63.31347126762379	-26.84255708348917	0.5816625027974688	0.688241187925084	-0.6627080648085741	-0.9089431934778058	0.6903913281821662	-0.0369183668794557	1.457023388919676	-0.9737002531915031	-0.9737002531915069	0.111746449103641	0.2282813295099129	-0.4094072621680132	0.5254104093933196	4.0499132215501e-07	1.209637320832868e-06	-1.599056495627344e-06	1.385448780764288e-07	5.965115695134457e-07	8.4020202395236e-08	4.005598929623226e-07
1.53	-0.3585657204971502	-0.02061954263633511	0.7751263452258556	1.051534825326835	-0.428130834535813	-0.2341064480033521	-0.2164163058761919	0.7431052847247002	0.7431052847246779	-0.1348185267481366	-0.1427664412898204	0.1069488933926526	-0.02271457599772432	0.7266809260810463	0.3085614479066073	0.5251336341384016	-2.547743223292804	0.2277202902199836	-0.7233626504173151	0.3551884082963916	-2.04519986392448	-2.045199863924462	-0.1285500475191692	0.138209665910485	-0.3833657566680523	0.06507422655472242	-0.1620294639027569	0.02332569738370078	-0.007192978152034139	-0.1922603063216421	0.04451144909199922	0.04397050579842329	0.1573661936068405	-17.18484564256168	-19.06756457402533	6.107982560113943	-7.352239344393968	-507.8302924472263	-63.63427865614376	-27.75512183468019	0.5455950323148812	0.6615592616869689	-0.7255192524322988	-0.7475796589815259	0.6343260650484316	0.02057626254292593	1.397561253854807	-0.8165343108402082	-0.8165343108609618	0.02514298723655359	0.1791223645894494	-0.3852375531615515	0.4679697125832095	4.210200770410362e-07	1.256938859612297e-06	-1.664536873706233e-06	1.369286073257498e-07	6.382374594743601e-07	1.39781448336663e-07	4.10268526626967e-07
